<?xml version="1.0" encoding="utf-8"?>
<!-- Generator: Adobe Illustrator 23.1.1, SVG Export Plug-In . SVG Version: 6.00 Build 0)  -->
<svg version="1.1" id="Calque_1" xmlns="http://www.w3.org/2000/svg" xmlns:xlink="http://www.w3.org/1999/xlink" x="0px" y="0px"
	 viewBox="0 0 70 70" style="enable-background:new 0 0 70 70;" xml:space="preserve">
<style type="text/css">
	.st0{fill-rule:evenodd;clip-rule:evenodd;fill:#FFFFFF;}
	.st1{fill:#B9C3FF;}
	.st2{fill:#6372FC;}
	.st3{opacity:0.3;fill:#FFFFFF;}
	.st4{fill-rule:evenodd;clip-rule:evenodd;fill:#6372FC;}
	.st5{fill-rule:evenodd;clip-rule:evenodd;fill:#EDF0FF;}
	.st6{fill-rule:evenodd;clip-rule:evenodd;fill:#E6E9FF;}
	.st7{fill:#5563B5;}
	.st8{fill-rule:evenodd;clip-rule:evenodd;fill:#1FDEA6;}
	.st9{fill:#FFFFFF;}
	.st10{fill-rule:evenodd;clip-rule:evenodd;fill:#FAD18F;}
	.st11{fill-rule:evenodd;clip-rule:evenodd;fill:#343A5E;}
	.st12{fill:#FAD18F;}
	.st13{fill:#00008F;}
	.st14{fill:#FF1721;}
</style>
<g>
	<g>
		<g>
			<g>
				<path class="st0" d="M47.057,48.894H1.717c-0.706,0-1.279-0.573-1.279-1.279V5.279C0.438,4.573,1.011,4,1.717,4h45.34
					c0.706,0,1.279,0.573,1.279,1.279v42.336C48.337,48.321,47.764,48.894,47.057,48.894z"/>
			</g>
			<g>
				<rect x="2.106" y="28.486" class="st1" width="44.559" height="7.48"/>
				<rect x="2.106" y="28.486" class="st2" width="8.003" height="7.48"/>
				<path class="st3" d="M26.397,33.035H13.603c-0.365,0-0.661-0.296-0.661-0.661v-0.807c0-0.365,0.296-0.661,0.661-0.661h12.794
					c0.365,0,0.661,0.296,0.661,0.661v0.807C27.058,32.739,26.762,33.035,26.397,33.035z"/>
				<circle class="st3" cx="6.108" cy="32.226" r="2.434"/>
			</g>
			<g>
				<rect x="2.106" y="38.389" class="st1" width="44.559" height="7.48"/>
				<rect x="2.106" y="38.389" class="st2" width="8.003" height="7.48"/>
				<path class="st3" d="M26.397,42.948H13.603c-0.365,0-0.661-0.296-0.661-0.661v-0.807c0-0.365,0.296-0.661,0.661-0.661h12.794
					c0.365,0,0.661,0.296,0.661,0.661v0.807C27.058,42.652,26.762,42.948,26.397,42.948z"/>
				<circle class="st3" cx="6.108" cy="42.14" r="2.434"/>
			</g>
		</g>
		<path class="st4" d="M46.125,5.682H2.646c-0.298,0-0.54,0.242-0.54,0.54V25.38c0,0.298,0.242,0.54,0.54,0.54h43.479
			c0.298,0,0.54-0.242,0.54-0.54V6.222C46.665,5.924,46.423,5.682,46.125,5.682z"/>
		<g>
			<rect x="38.89" y="26.955" class="st0" width="28.075" height="39.005"/>
			<rect x="38.89" y="26.955" class="st5" width="28.075" height="3.298"/>
			<rect x="38.89" y="62.702" class="st5" width="28.075" height="3.298"/>
			<path class="st6" d="M50.633,33.856h-8.968c-0.28,0-0.507-0.227-0.507-0.507v-0.618c0-0.28,0.227-0.507,0.507-0.507h8.968
				c0.28,0,0.507,0.227,0.507,0.507v0.618C51.14,33.63,50.913,33.856,50.633,33.856z"/>
			<path class="st6" d="M50.633,36.658h-8.968c-0.28,0-0.507-0.227-0.507-0.507v-0.618c0-0.28,0.227-0.507,0.507-0.507h8.968
				c0.28,0,0.507,0.227,0.507,0.507v0.618C51.14,36.431,50.913,36.658,50.633,36.658z"/>
			<rect x="41.158" y="42.213" class="st6" width="23.562" height="1.632"/>
			<rect x="41.158" y="45.19" class="st6" width="23.562" height="1.632"/>
			<path class="st6" d="M64.214,54.631h-7.858c-0.28,0-0.507-0.227-0.507-0.507v-0.618c0-0.28,0.227-0.507,0.507-0.507h7.858
				c0.28,0,0.507,0.227,0.507,0.507v0.618C64.72,54.404,64.493,54.631,64.214,54.631z"/>
			<g>
				<path class="st7" d="M52.792,58.922c1.396-0.244,2.883-1.481,2.905-2.865c0.007-0.425-0.323-0.488-0.738-0.16
					c-0.677,0.532-0.95,1.506-1.147,2.164c-0.215,0.715-0.144,1.521,0.626,1.618c0.781,0.099,1.146-0.572,1.717-1.058
					c0.462-0.394,0.903-0.705,0.669-1.222c-0.15-0.333-0.505-0.129-0.718,0.228c-0.408,0.684-0.064,1.048,0.528,1.177
					c0.378,0.082,0.765-0.072,1.183-0.275c0.387-0.187,0.679-0.411,1.032-0.297c0.285,0.092,0.54,0.307,0.789,0.447
					c0.108,0.062,0.275-0.064,0.31-0.185c0.089-0.313,0.335-0.749,0.706-0.94c0.347-0.177,0.575,0.116,0.746,0.247
					c0.147,0.113,0.299,0.29,0.532,0.293c0.302,0.005,0.699-0.191,1.012-0.266c0.61-0.147,1.194-0.211,1.77-0.208
					c0.226,0.002,0.397-0.341,0.169-0.341c-0.63-0.004-1.27,0.056-1.941,0.224c-0.46,0.114-0.822,0.277-1.174,0.067
					c-0.185-0.11-0.299-0.279-0.513-0.357c-0.772-0.288-1.484,0.653-1.678,1.332c0.104-0.061,0.206-0.123,0.31-0.185
					c-0.321-0.183-0.735-0.607-1.209-0.548c-0.688,0.086-1.277,0.83-1.955,0.618c-0.277-0.087-0.482-0.232-0.383-0.549
					c0.141-0.455,0.226,0.035-0.084,0.301c-0.118,0.103-0.265,0.172-0.38,0.278c-0.189,0.172-0.298,0.382-0.487,0.556
					c-0.449,0.412-0.977,0.389-1.197,0.045c-0.224-0.346-0.081-0.851,0.083-1.321c0.09-0.259,0.69-1.836,0.998-1.6
					c0.254,0.195-0.41,1.287-0.638,1.528c-0.441,0.471-1.216,0.808-1.769,0.904C52.627,58.616,52.551,58.966,52.792,58.922
					L52.792,58.922z"/>
			</g>
		</g>
		<g>
			<circle class="st8" cx="64.99" cy="33.041" r="4.572"/>
			<path class="st9" d="M64.153,35.544c-0.15,0-0.295-0.06-0.401-0.166l-1.572-1.572c-0.222-0.222-0.222-0.581,0-0.803
				s0.581-0.222,0.803,0l1.112,1.112l2.393-3.147c0.191-0.249,0.545-0.296,0.796-0.109c0.249,0.191,0.298,0.547,0.109,0.796
				l-2.787,3.665c-0.1,0.131-0.251,0.212-0.413,0.223C64.178,35.544,64.165,35.544,64.153,35.544z"/>
		</g>
		<g>
			<path class="st10" d="M40.163,21.122h-8.838c-0.31,0-0.562-0.251-0.562-0.562v-6.624c0-0.31,0.251-0.562,0.562-0.562h8.838
				c0.31,0,0.562,0.251,0.562,0.562v6.624C40.724,20.87,40.473,21.122,40.163,21.122z"/>
			<path class="st11" d="M37.284,16.141c0-0.85-0.69-1.54-1.54-1.54s-1.54,0.69-1.54,1.54c0,0.616,0.364,1.143,0.887,1.39
				l-0.887,1.885h3.08l-0.887-1.885C36.92,17.284,37.284,16.757,37.284,16.141z"/>
			<path class="st12" d="M35.744,10.325c1.641,0,2.975,1.368,2.975,3.049h1.107c0-2.295-1.828-4.156-4.082-4.156l0,0
				c-2.254,0-4.082,1.861-4.082,4.156h1.107C32.769,11.693,34.103,10.325,35.744,10.325"/>
		</g>
	</g>
	<g id="layer1" transform="translate(-84.585989,-14.571111)">
		<g id="g76" transform="matrix(0.09924117,0,0,0.09924117,84.585989,14.571111)">
			<rect id="base-2" x="34.455" y="70.046" class="st13" width="177.055" height="177.055"/>
			<polygon id="switch" class="st14" points="134.004,157.484 144.172,157.484 211.51,70.044 201.564,70.044 			"/>
			<path id="axa" class="st9" d="M169.742,196.504c3.086,8.634,9.445,31.102,11.973,32.893h-16.695
				c-0.05-1.986-0.313-3.962-0.784-5.892c-0.72-2.568-6.759-21.996-6.759-21.996H130.96l-4.169,5.911c0,0,5.008,15.676,5.319,16.445
				c0.54,1.385,2.931,5.532,2.931,5.532h-15.999c0,0-0.415-2.394-0.57-3.391c-0.125-0.805-1.516-5.215-1.516-5.215
				s-3.626,3.974-4.614,5.816c-0.998,1.839-1.44,2.79-1.44,2.79H98.384c0,0-0.418-2.394-0.573-3.391
				c-0.122-0.805-1.653-5.569-1.653-5.569s-3.504,4.255-4.502,6.093c-0.991,1.842-1.418,2.867-1.418,2.867H77.859
				c0,0,3.498-3.33,4.721-4.761c2.062-2.425,9.744-12.465,9.744-12.465l-3.08-10.662H62.927c0,0-15.005,19.717-15.597,20.327
				c-0.598,0.601-4.971,6.878-5.069,7.561h-7.808v-4.965c0.097-0.105,0.2-0.205,0.308-0.299
				c0.241-0.177,11.376-13.999,21.605-27.629c9.192-11.885,17.817-23.444,18.574-24.545c1.833-2.662,4.474-8.411,4.474-8.411h13.605
				c0,0,0.421,5.288,0.818,6.572c0.354,1.135,8.643,28.333,8.838,28.626l4.584-5.862l-7.835-24.118c0,0-1.836-4.538-2.434-5.218
				h15.893c-0.056,1.459,0.119,2.917,0.518,4.321c0.646,1.989,4.053,14.283,4.053,14.283s10.839-13.587,11.473-14.563
				c0.77-1.217,1.23-2.605,1.339-4.041h13.242c0,0-2.424,1.772-6.673,7.146c-1.427,1.809-15.411,19.58-15.411,19.58
				s1.22,4.16,1.815,6.231c0.162,0.595,0.275,0.997,0.275,1.04c0,0.018,0.308-0.36,0.839-1.04
				c3.608-4.572,20.019-26.092,21.014-27.934c0.802-1.488,1.982-3.181,2.675-5.023h12.919c0,0,0.299,3.858,0.692,4.925
				L169.742,196.504z M150.082,176.134c-1.897,4.081-13.062,17.674-13.062,17.674h17.683c0,0-3.428-10.556-4.026-12.934
				c-0.305-1.521-0.422-3.074-0.348-4.624C150.329,176.033,150.29,175.682,150.082,176.134z M82.141,176.134
				c-1.897,4.081-13.062,17.674-13.062,17.674h17.683c0,0-3.425-10.556-4.022-12.934c-0.305-1.521-0.422-3.074-0.348-4.624
				C82.391,176.033,82.348,175.682,82.141,176.134z M108.763,217.349l4.868-6.685c-0.448-0.482-3.19-8.796-3.19-8.796l-4.706,6.106
				L108.763,217.349z"/>
		</g>
	</g>
</g>
</svg>
