<svg xmlns="http://www.w3.org/2000/svg" xmlns:xlink="http://www.w3.org/1999/xlink" width="130" height="115" viewBox="0 0 130 115">
    <defs>
        <path id="a" d="M0 114.294h138.43V.685H0z"/>
    </defs>
    <g fill="none" fill-rule="evenodd">
        <path fill="#FFF" d="M62.37 114.354h67.06v-91.59H62.37z"/>
        <path fill="#EDF0FF" d="M62.37 29.775h67.06V23.03H62.37zM62.37 114.354h67.06v-7.879H62.37z"/>
        <g transform="translate(-9 .06)">
            <path fill="#E6E9FF" d="M99.687 37.085h-21.96a.94.94 0 0 1-.94-.939V34.69a.94.94 0 0 1 .94-.94h21.96a.94.94 0 0 1 .942.94v1.457a.939.939 0 0 1-.942.94M99.687 42.814h-21.96a.94.94 0 0 1-.94-.939v-1.458a.94.94 0 0 1 .94-.938h21.96a.94.94 0 0 1 .942.938v1.458a.939.939 0 0 1-.942.939"/>
            <path fill="#4CE5B8" d="M12.792.686h44.484a3.566 3.566 0 0 1 3.566 3.566v37.66H9.226V4.252A3.564 3.564 0 0 1 12.792.686"/>
            <mask id="b" fill="#fff">
                <use xlink:href="#a"/>
            </mask>
            <path fill="#FFCDDA" d="M31.17 34.738h7.45V24.444h-7.45z" mask="url(#b)"/>
            <path fill="#343A5E" d="M58.204 41.928c-1.683-5.158-5.77-9.531-19.548-10.585 0 0-1.416.815-4.266.815-2.66 0-3.747-.939-3.747-.939-6.06-.129-9.352-.527-15.559 3.783-1.891 1.32-4.263 3.783-4.675 6.923h47.795v.003z" mask="url(#b)"/>
            <path fill="#FFCDDA" d="M46.655 20.082c.052-.315-1.021-1.855-1.021-1.855-.324-3.174-2.059-6.542-6-7.917-5.25-1.831-10.71.255-12.61 5.205-1.33 3.47.275 5.748.275 5.748.69 2.775 2.545 5.817 5.4 6.923 4.941 1.916 10.92.187 13.064-6.091.285-.832.722-.98.892-2.013" mask="url(#b)"/>
            <path fill="#343A5E" d="M36.785 13.49c-1.576.88-4.398 4.636-5.749 6.802-.211-.31-1.057-1.387-2.218-.964-1.125.412-1.293 1.4-1.004 2.402.225.782 1.356 2.726 3.412 3.261l-.865 2.166c-3.813-2.298-9.572-9.553-5.54-14.222 2.644-10.882 17.624-4.129 20.506-5.963.634 3.948-1.4 7.132-8.542 6.517" mask="url(#b)"/>
            <path fill="#FFF" d="M44.986 41.928a4.463 4.463 0 0 0-4.46-4.464H13.632a4.461 4.461 0 0 0-4.46 4.464c0 .192.032.373.057.56v19.358c0 1.11.897 2.007 2.006 2.007h47.603a2.006 2.006 0 0 0 2.007-2.007V41.928H44.986z" mask="url(#b)"/>
            <path fill="#D8D8D8" d="M14.052 55.445h19.284V52.03H14.052z" mask="url(#b)"/>
            <path fill="#465192" d="M38.385 45.098H15.26c-.667 0-1.208-.54-1.208-1.208v-1c0-.666.541-1.207 1.208-1.207h23.125c.667 0 1.208.54 1.208 1.208v.999c0 .667-.541 1.208-1.208 1.208" mask="url(#b)"/>
            <path fill="#B9C3FF" d="M82.394 63.168a.93.93 0 0 1-.656-.275L79.17 60.33a.925.925 0 0 1 0-1.31.92.92 0 0 1 1.31 0l1.814 1.813 3.906-5.136a.935.935 0 0 1 1.299-.182.934.934 0 0 1 .178 1.302l-4.546 5.978a.953.953 0 0 1-.678.368c-.016.006-.04.006-.06.006" mask="url(#b)"/>
            <path fill="#E6E9FF" d="M126.133 61.65H95.366a2.401 2.401 0 1 1 0-4.804h30.767a2.401 2.401 0 1 1 0 4.804M126.133 74.845H95.366a2.403 2.403 0 0 1 0-4.804h30.767a2.403 2.403 0 0 1 0 4.804M126.133 88.034H95.366a2.401 2.401 0 1 1 0-4.804h30.767a2.403 2.403 0 0 1 0 4.804" mask="url(#b)"/>
            <path fill="#B9C3FF" d="M82.394 76.357a.938.938 0 0 1-.656-.272l-2.567-2.567a.925.925 0 0 1 0-1.309.925.925 0 0 1 1.31 0l1.814 1.815 3.906-5.14a.932.932 0 0 1 1.299-.178.93.93 0 0 1 .178 1.299l-4.546 5.981a.94.94 0 0 1-.678.365c-.016.006-.04.006-.06.006M82.394 89.546a.938.938 0 0 1-.656-.272l-2.567-2.566a.925.925 0 0 1 0-1.31.925.925 0 0 1 1.31 0l1.814 1.815 3.906-5.139a.935.935 0 0 1 1.299-.178c.406.31.486.892.178 1.3l-4.546 5.98a.94.94 0 0 1-.678.365c-.016.005-.04.005-.06.005" mask="url(#b)"/>
            <path fill="#1FDEA6" d="M52.659 54.1c5.386 0 9.753 4.367 9.753 9.753s-4.367 9.754-9.753 9.754-9.754-4.368-9.754-9.754c0-5.386 4.368-9.753 9.754-9.753" mask="url(#b)"/>
            <path fill="#FFF" d="M50.875 69.191c-.319 0-.629-.129-.857-.354l-3.354-3.354a1.213 1.213 0 0 1 0-1.713 1.218 1.218 0 0 1 1.713 0l2.371 2.374 5.106-6.717a1.22 1.22 0 0 1 1.7-.23c.532.406.636 1.166.23 1.701l-5.946 7.816a1.198 1.198 0 0 1-.881.475c-.027.002-.058.002-.082.002" mask="url(#b)"/>
        </g>
    </g>
</svg>
