<?xml version="1.0" encoding="UTF-8"?>
<svg width="50px" height="32px" viewBox="0 0 50 32" version="1.1" xmlns="http://www.w3.org/2000/svg" xmlns:xlink="http://www.w3.org/1999/xlink">
    <!-- Generator: Sketch 52.6 (67491) - http://www.bohemiancoding.com/sketch -->
    <title>icn_hands</title>
    <desc>Created with Sketch.</desc>
    <g id="LP-Become-a-freelancer" stroke="none" stroke-width="1" fill="none" fill-rule="evenodd">
        <g id="LP_become_freelancer_desktop" transform="translate(-936.000000, -947.000000)">
            <g id="value_prop" transform="translate(130.000000, 748.000000)">
                <g id="text3" transform="translate(806.000000, 192.000000)">
                    <g id="Deal">
                        <g id="hands" transform="translate(0.000000, 7.000000)">
                            <path d="M28.2123479,10.0789502 C27.169992,10.732428 26.4243428,11.557772 26.1197723,12.1961034 C25.9898345,12.4683923 25.9447515,12.6954766 25.9463422,12.81639 C25.9479196,12.9373034 25.9619354,12.9265546 25.9669152,12.9311006 C25.9768836,12.94015 26.4204669,13.1387266 27.5687951,12.7880948 C27.9938828,12.658254 28.9299958,12.0831596 30.0769301,11.942335 L33.0230202,14.8865334 C32.8010813,14.7327279 32.5884725,14.5880387 32.3885079,14.4553487 C31.6852787,13.9886467 31.0179462,13.6643133 31.0364159,13.6689442 C30.3086326,13.4769528 29.2073714,14.0708135 28.1038435,14.407935 C28.1037993,14.407935 28.1037551,14.407935 28.1037109,14.407935 C26.6848362,14.8411584 25.528886,14.8734898 24.7509604,14.1644512 C24.3619953,13.8099107 24.185079,13.3021679 24.1790255,12.8378452 C24.172972,12.3734799 24.3035814,11.9270435 24.5133192,11.4874473 C24.5790768,11.3496672 24.6541046,11.2115047 24.7360476,11.0735122 L22.5297827,10.9628802 L22.4999748,11.1107294 C22.4866704,11.1762418 22.465302,11.2402673 22.4364574,11.3009789 L19.2188895,18.0753709 C22.4984106,20.0601181 25.4840947,21.9922258 28.6752481,24.0683166 C28.6756016,24.0678917 28.6759109,24.0678917 28.6762202,24.0683166 C29.2721304,24.4541688 29.9173478,24.3085289 30.3030917,24.0521721 C30.3812346,24.0002125 30.4385925,23.9445566 30.4796987,23.8977378 L26.7825713,21.6914293 C25.846632,21.1718756 26.6806872,19.6735011 27.7146177,20.2474786 L31.5234518,22.5204466 C31.523496,22.5204466 31.5235402,22.5204466 31.5235844,22.5204466 C31.5328767,22.5259697 31.5418995,22.5319177 31.5510592,22.5378656 C31.5521639,22.5378656 31.5532685,22.5378656 31.5543732,22.5378656 C31.8606618,22.7393313 32.5395091,22.7414131 33.0376445,22.5421142 C33.037998,22.5421142 33.0383957,22.5421142 33.0387492,22.5421142 C33.16836,22.4904519 33.2736641,22.4240473 33.3534375,22.3655449 L29.7493747,20.1982806 C28.838427,19.692577 29.6167945,18.1636131 30.6865334,18.7574738 C31.9486405,19.5164751 33.2581858,20.2953597 34.5106957,21.061796 C35.0513999,21.3896981 35.8572422,21.3212967 36.257837,21.1099744 C36.3510607,21.0608188 36.4054227,21.0134901 36.4373427,20.9812012 C36.4124616,20.9616579 36.3724688,20.9320881 36.3180405,20.8938512 L31.4466742,18.0455887 C30.540808,17.5427742 31.3399473,16.024644 32.3650495,16.5936932 L37.2377811,19.4428055 C37.3677662,19.5149612 37.5653338,19.5906602 37.790749,19.6512006 L50,31.8526115 L15.9203237,32 L15.845944,32 C11.6393588,32 7.68070586,30.3564787 4.69174387,27.3642131 C1.68625306,24.355262 0.0195968297,20.3451812 0.000313203915,16.0681324 C-0.0189704218,11.7938646 0.796451468,0 18.1269214,0 L28.2123479,10.0789502 Z" id="Combined-Shape" fill="#FFCDDA" opacity="0.5"></path>
                            <path d="M14.449699,7.00141568 C13.9038162,7.00269024 13.3560643,7.02202109 12.8157842,7.0620848 C12.3070751,7.11204761 12,7.45456477 12,7.90928582 L12,21.9166868 C12,22.458333 12.3888104,22.7663945 12.8837202,22.7663945 L16.4186011,22.7663945 C16.5867466,22.7663945 16.7546004,22.7190658 16.8960973,22.6317158 C17.0375941,22.5443659 17.1522436,22.4173346 17.2222342,22.2703352 L18.4772539,19.6341172 C21.650671,21.5596397 24.5622287,23.4433566 27.6857554,25.4754749 C27.6860647,25.4754749 27.6864182,25.4754749 27.6867275,25.4754749 C28.9375142,26.2868183 30.3883088,26.0605836 31.308045,25.449134 C31.6979866,25.1899732 32.0329121,24.8602866 32.2073717,24.4158045 C32.7414613,24.4153797 33.2630639,24.292257 33.7157717,24.1112268 C33.716081,24.1112268 33.7164345,24.110802 33.7167438,24.110802 C34.2819668,23.885332 34.7987708,23.5769731 35.0953473,23.0020609 C35.821562,23.0641321 36.5333368,22.9023052 37.1080201,22.5991295 C37.5655176,22.3577701 37.9977628,21.9933305 38.1675166,21.4505797 C38.1749797,21.4510046 38.1824206,21.4505797 38.1898836,21.4505797 C38.8351628,21.5049185 39.486067,21.4675739 40.089882,21.1550089 C40.0900588,21.1550089 40.0902355,21.1550089 40.0904565,21.154584 C40.0916053,21.154584 40.0927541,21.154584 40.093903,21.154584 L40.0937704,21.154584 C40.701169,20.8411694 41.1034914,20.2368998 41.1205428,19.6016158 C41.1255933,19.4134906 41.0965631,19.2264274 41.0390771,19.045992 C41.2342865,18.9973462 41.4268623,18.9430074 41.6159785,18.8881163 C42.1156118,18.7431137 42.5837316,18.5726199 42.9528837,18.4294441 L44.7776289,22.2685083 C44.8475533,22.4156352 44.9621895,22.5427939 45.1037173,22.6302288 C45.245245,22.7176638 45.413174,22.7650774 45.581399,22.7650774 L49.1162798,22.7650774 C49.6473028,22.7650774 50,22.3991508 50,21.9153698 L50,7.90796878 C50,7.43833535 49.6298582,7.14688563 49.1842158,7.06076776 C47.0230957,6.90059786 44.7433052,7.07257869 42.9358986,7.39491529 C42.0321974,7.55610483 41.2510595,7.75196245 40.6320135,7.9869491 C40.322486,8.10442119 40.0534197,8.22809614 39.8072506,8.39655068 C39.561086,8.56496274 39.2735367,8.78690638 39.1847846,9.24914734 C39.1646844,9.35374636 39.16525,9.46195663 39.1864195,9.56634321 L39.197466,9.62063953 C38.0859448,9.2716646 37.1309305,8.98352873 35.9507619,8.48521767 C35.9497015,8.48479282 35.948641,8.48436797 35.9475805,8.48394311 C34.0852242,7.70595078 32.3114607,7.09998176 30.513395,7.40213781 C30.5128647,7.40213781 30.5123787,7.40213781 30.5118927,7.40256266 C28.7174678,7.70178721 27.2155412,8.48283849 26.1204748,9.44011914 L22.8192275,9.27468106 C22.8180787,9.26622647 22.8167973,9.25777188 22.8153834,9.24931729 C22.2366703,7.85915307 20.2765171,7.61422484 19.0642694,7.39508523 C17.7087133,7.1533434 16.087374,6.99614749 14.4497299,7.00026857 L14.449699,7.00141568 Z M14.4534106,8.70214804 C15.9710587,8.70002377 17.5025326,8.84608852 18.7417999,9.06713996 C19.5679811,9.21447927 20.2687315,9.3981011 20.7189869,9.56897731 C20.8244722,9.60904102 20.9146426,9.64880734 20.9886586,9.68449506 C20.9221056,10.0366989 20.8559017,10.3376653 20.7852659,10.6857056 C19.130491,14.1528952 17.4958737,17.6121103 15.8512086,21.0669792 L13.7674228,21.0669792 L13.7674228,8.71408643 C13.9951089,8.70673646 14.2240322,8.70248792 14.4534106,8.70214804 Z M47.5466601,8.70214804 C47.7760032,8.70257289 48.0048558,8.70673646 48.232511,8.71408643 L48.232511,21.0669792 L46.1491406,21.0669792 L41.2134218,10.6827741 C41.2132009,10.6810747 41.21298,10.6798001 41.2127148,10.6779733 L41.0109792,9.68462252 C41.085057,9.64889231 41.1752716,9.60908351 41.2809292,9.56897731 C41.7311802,9.3981011 42.432072,9.21447927 43.2582532,9.06713996 C44.4975205,8.84608852 46.02899,8.6999388 47.5466425,8.70214804 L47.5466601,8.70214804 Z M31.3907347,9.02890312 C32.4619406,9.01883408 33.7411919,9.41662472 35.24003,10.0425619 C35.2410904,10.0429867 35.2421067,10.0434116 35.2432113,10.0438364 C36.8999128,10.7431033 38.1262602,11.0549461 39.6932949,11.5730553 L42.2171468,16.8828062 C41.8895606,17.0083081 41.5027121,17.1471503 41.1051749,17.2625406 C40.4573859,17.4505384 39.7731744,17.5187275 39.5121323,17.4880955 C38.6259642,16.8509422 37.2424693,15.8098804 35.896475,14.8247591 C35.0139655,14.1788963 34.1392283,13.5521094 33.3925068,13.0566024 C32.6457897,12.5610529 32.1482995,12.203071 31.5119811,12.0320249 C31.5111858,12.0316 31.5104346,12.0316 31.5096393,12.0311752 C29.745314,11.5619666 28.1610555,12.607192 27.5687951,12.7880948 C26.4204669,13.1387266 25.9768836,12.94015 25.9669152,12.9311006 C25.9619354,12.9265546 25.9479196,12.9373034 25.9463422,12.81639 C25.9447515,12.6954766 25.9898345,12.4683923 26.1197723,12.1961034 C26.6395279,11.1067782 28.4437974,9.47283289 30.8150882,9.0778038 C30.8155743,9.0778038 30.8161045,9.07737894 30.8165905,9.07737894 C31.0008948,9.04632213 31.1922158,9.03051756 31.3907303,9.02864821 L31.3907347,9.02890312 Z M22.5297827,10.9628802 L24.7360476,11.0735122 C24.6541046,11.2115047 24.5790768,11.3496672 24.5133192,11.4874473 C24.3035814,11.9270435 24.172972,12.3734799 24.1790255,12.8378452 C24.185079,13.3021679 24.3619953,13.8099107 24.7509604,14.1644512 C25.528886,14.8734898 26.6848362,14.8411584 28.1037109,14.407935 C28.1037551,14.407935 28.1037993,14.407935 28.1038435,14.407935 C29.2073714,14.0708135 30.3086326,13.4769528 31.0364159,13.6689442 C31.0179462,13.6643133 31.6852787,13.9886467 32.3885079,14.4553487 C33.0924705,14.9224754 33.9531389,15.5383138 34.8259187,16.1770815 C36.5711158,17.4543196 38.3246421,18.7986846 39.1919074,19.3618283 C39.364308,19.4739473 39.3543264,19.537123 39.3537431,19.559003 C38.9180249,19.9779514 37.6824514,19.6896455 37.2377811,19.4428055 L32.3650495,16.5936932 C31.3399473,16.024644 30.540808,17.5427742 31.4466742,18.0455887 L36.3180405,20.8938512 C36.3724688,20.9320881 36.4124616,20.9616579 36.4373427,20.9812012 C36.4054227,21.0134901 36.3510607,21.0608188 36.257837,21.1099744 C35.8572422,21.3212967 35.0513999,21.3896981 34.5106957,21.061796 C33.2581858,20.2953597 31.9486405,19.5164751 30.6865334,18.7574738 C29.6167945,18.1636131 28.838427,19.692577 29.7493747,20.1982806 L33.3534375,22.3655449 C33.2736641,22.4240473 33.16836,22.4904519 33.0387492,22.5421142 C33.0383957,22.5421142 33.037998,22.5421142 33.0376445,22.5421142 C32.5395091,22.7414131 31.8606618,22.7393313 31.5543732,22.5378656 C31.5532685,22.5378656 31.5521639,22.5378656 31.5510592,22.5378656 C31.5418995,22.5319177 31.5328767,22.5259697 31.5235844,22.5204466 C31.5235402,22.5204466 31.523496,22.5204466 31.5234518,22.5204466 L27.7146177,20.2474786 C26.6806872,19.6735011 25.846632,21.1718756 26.7825713,21.6914293 L30.4796987,23.8977378 C30.4385925,23.9445566 30.3812346,24.0002125 30.3030917,24.0521721 C29.9173478,24.3085289 29.2721304,24.4541688 28.6762202,24.0683166 C28.6759109,24.0678917 28.6756016,24.0678917 28.6752481,24.0683166 C25.4840947,21.9922258 22.4984106,20.0601181 19.2188895,18.0753709 L22.4364574,11.3009789 C22.465302,11.2402673 22.4866704,11.1762418 22.4999748,11.1107294 L22.5297827,10.9628802 Z" id="Shape" fill="#353A5E"></path>
                            <path d="M14.4534106,8.70214804 C15.9710587,8.70002377 17.5025326,8.84608852 18.7417999,9.06713996 C19.5679811,9.21447927 20.2687315,9.3981011 20.7189869,9.56897731 C20.8244722,9.60904102 20.9146426,9.64880734 20.9886586,9.68449506 C20.9221056,10.0366989 20.8559017,10.3376653 20.7852659,10.6857056 C19.130491,14.1528952 17.4958737,17.6121103 15.8512086,21.0669792 L13.7674228,21.0669792 L13.7674228,8.71408643 C13.9951089,8.70673646 14.2240322,8.70248792 14.4534106,8.70214804 Z M47.5466601,8.70214804 C47.7760032,8.70257289 48.0048558,8.70673646 48.232511,8.71408643 L48.232511,21.0669792 L46.1491406,21.0669792 L41.2134218,10.6827741 C41.2132009,10.6810747 41.21298,10.6798001 41.2127148,10.6779733 L41.0109792,9.68462252 C41.085057,9.64889231 41.1752716,9.60908351 41.2809292,9.56897731 C41.7311802,9.3981011 42.432072,9.21447927 43.2582532,9.06713996 C44.4975205,8.84608852 46.02899,8.6999388 47.5466425,8.70214804 L47.5466601,8.70214804 Z" id="Combined-Shape" fill="#5563B5"></path>
                        </g>
                    </g>
                </g>
            </g>
        </g>
    </g>
</svg>