<?xml version="1.0" encoding="UTF-8"?>
<svg width="50px" height="39px" viewBox="0 0 50 39" version="1.1" xmlns="http://www.w3.org/2000/svg" xmlns:xlink="http://www.w3.org/1999/xlink">
    <!-- Generator: Sketch 52.6 (67491) - http://www.bohemiancoding.com/sketch -->
    <title>icn_mission</title>
    <desc>Created with Sketch.</desc>
    <g id="LP-Become-a-freelancer" stroke="none" stroke-width="1" fill="none" fill-rule="evenodd">
        <g id="LP_become_freelancer_desktop" transform="translate(-130.000000, -940.000000)">
            <g id="value_prop" transform="translate(130.000000, 748.000000)">
                <g id="text1" transform="translate(0.000000, 192.000000)">
                    <g id="Fill-9">
                        <path d="M30.8650466,32 C32.12254,34.3789017 34.6219561,36 37.5,36 C40.1192176,36 42.4248462,34.6573659 43.7661845,32.6227989 L50,38.8526115 L15.9203237,39 L15.845944,39 C11.6393588,39 7.68070586,37.3564787 4.69174387,34.3642131 C1.68625306,31.355262 0.0195968297,27.3451812 0.000313203915,23.0681324 C-0.0185435027,18.8884924 0.760755423,7.51852184 17,7.01713211 L17,31 C17,31.5522847 17.4477153,32 18,32 L30.8650466,32 Z" id="Combined-Shape" fill="#FFCDDA" fill-rule="evenodd" opacity="0.5"></path>
                        <path d="M30.8650466,32 C31.2621963,32.7513201 31.7832233,33.4270521 32.4009315,34 L18,34 C16.3431458,34 15,32.6568542 15,31 L15,3 C15,1.34314575 16.3431458,3.33066907e-16 18,0 L39,0 C40.6568542,-3.33066907e-16 42,1.34314575 42,3 L42,22.4994507 C41.3972969,22.0467428 40.7241718,21.6827223 40,21.4267643 L40,3 C40,2.44771525 39.5522847,2 39,2 L18,2 C17.4477153,2 17,2.44771525 17,3 L17,31 C17,31.5522847 17.4477153,32 18,32 L30.8650466,32 Z M20,9.5 C19.4477153,9.5 19,9.05228475 19,8.5 C19,7.94771525 19.4477153,7.5 20,7.5 L37,7.5 C37.5522847,7.5 38,7.94771525 38,8.5 C38,9.05228475 37.5522847,9.5 37,9.5 L20,9.5 Z M20,15.5 C19.4477153,15.5 19,15.0522847 19,14.5 C19,13.9477153 19.4477153,13.5 20,13.5 L37,13.5 C37.5522847,13.5 38,13.9477153 38,14.5 C38,15.0522847 37.5522847,15.5 37,15.5 L20,15.5 Z M20,21.5 C19.4477153,21.5 19,21.0522847 19,20.5 C19,19.9477153 19.4477153,19.5 20,19.5 L26,19.5 C26.5522847,19.5 27,19.9477153 27,20.5 C27,21.0522847 26.5522847,21.5 26,21.5 L20,21.5 Z" id="Combined-Shape" fill="#3B4269" fill-rule="nonzero"></path>
                        <path d="M37.5,36 C33.3578644,36 30,32.6421356 30,28.5 C30,24.3578644 33.3578644,21 37.5,21 C41.6421356,21 45,24.3578644 45,28.5 C45,32.6421356 41.6421356,36 37.5,36 Z M36.5761455,29.8338746 L34.7909789,28.079171 C34.3884269,27.6834883 33.7509292,27.6590073 33.3192176,28.0226529 C33.292009,28.0455716 33.2662118,28.0701154 33.2419674,28.0961497 C32.909968,28.4526597 32.9298378,29.0108068 33.2863478,29.3428062 L35.7075303,31.597529 C35.7428837,31.6505584 35.7849193,31.7003464 35.8335939,31.7456746 C36.2027498,32.0894504 36.7748291,32.0894504 37.143985,31.7456746 L41.7303538,27.4746252 C41.7448299,27.4611444 41.7588216,27.4471526 41.7723025,27.4326766 C42.0861113,27.0957001 42.0673303,26.5681343 41.7303538,26.2543254 C41.3611979,25.9105496 40.7891186,25.9105496 40.4199627,26.2543254 L36.5761455,29.8338746 Z" id="Combined-Shape" fill="#5563B5" fill-rule="evenodd"></path>
                    </g>
                </g>
            </g>
        </g>
    </g>
</svg>