<?xml version="1.0" encoding="UTF-8"?>
<svg width="50px" height="32px" viewBox="0 0 50 32" version="1.1" xmlns="http://www.w3.org/2000/svg" xmlns:xlink="http://www.w3.org/1999/xlink">
    <!-- Generator: Sketch 52.6 (67491) - http://www.bohemiancoding.com/sketch -->
    <title>icn_money</title>
    <desc>Created with Sketch.</desc>
    <g id="LP-Become-a-freelancer" stroke="none" stroke-width="1" fill="none" fill-rule="evenodd">
        <g id="LP_become_freelancer_desktop" transform="translate(-289.000000, -2944.000000)">
            <g id="video" transform="translate(210.000000, 1793.000000)">
                <g id="text3" transform="translate(79.000000, 1144.000000)">
                    <g id="Fill-9">
                        <path d="M20.7924415,9.6638084 C19.7122314,10.3800198 19,11.6068346 19,13 L19,28 C19,30.209139 20.790861,32 23,32 L42,32 C42.3501315,32 42.6897559,31.9550139 43.0134086,31.8705064 L50,38.8526115 L15.9203237,39 L15.845944,39 C11.6393588,39 7.68070586,37.3564787 4.69174387,34.3642131 C1.68625306,31.355262 0.0195968297,27.3451812 0.000313203915,23.0681324 C-0.0189704218,18.7938646 0.796451468,7 18.1269214,7 L20.7924415,9.6638084 Z" id="Combined-Shape" fill="#FFCDDA" fill-rule="evenodd" opacity="0.5"></path>
                        <path d="M19,26.4671344 L21,26.4671344 L21,28 C21,29.1045695 21.8954305,30 23,30 L42,30 C43.1045695,30 44,29.1045695 44,28 L44,13 C44,11.8954305 43.1045695,11 42,11 L23,11 C21.8954305,11 21,11.8954305 21,13 L21,14.2749696 L19,14.2749696 L19,13 C19,10.790861 20.790861,9 23,9 L42,9 C44.209139,9 46,10.790861 46,13 L46,28 C46,30.209139 44.209139,32 42,32 L23,32 C20.790861,32 19,30.209139 19,28 L19,26.4671344 Z M19,26.4671344 L21,26.4671344 L21,28 C21,29.1045695 21.8954305,30 23,30 L42,30 C43.1045695,30 44,29.1045695 44,28 L44,13 C44,11.8954305 43.1045695,11 42,11 L23,11 C21.8954305,11 21,11.8954305 21,13 L21,14.2749696 L19,14.2749696 L19,13 C19,10.790861 20.790861,9 23,9 L42,9 C44.209139,9 46,10.790861 46,13 L46,28 C46,30.209139 44.209139,32 42,32 L23,32 C20.790861,32 19,30.209139 19,28 L19,26.4671344 Z" id="Rectangle" fill="#343A5D" fill-rule="nonzero" transform="translate(32.500000, 20.500000) rotate(-180.000000) translate(-32.500000, -20.500000) "></path>
                        <path d="M49,19.3333333 L49,21.6666667 C49,22.9553311 47.9055849,24 46.5555556,24 L40.4444444,24 C39.0944151,24 38,22.9553311 38,21.6666667 L38,19.3333333 C38,18.0446689 39.0944151,17 40.4444444,17 L46.5555556,17 C47.9055849,17 49,18.0446689 49,19.3333333 Z M48,20.5 C48,19.6715729 47.3284271,19 46.5,19 C45.6715729,19 45,19.6715729 45,20.5 C45,21.3284271 45.6715729,22 46.5,22 C47.3284271,22 48,21.3284271 48,20.5 Z" id="Combined-Shape" fill="#5563B5" fill-rule="evenodd"></path>
                    </g>
                </g>
            </g>
        </g>
    </g>
</svg>