<?xml version="1.0" encoding="UTF-8"?>
<svg width="143px" height="101px" viewBox="0 0 143 101" version="1.1" xmlns="http://www.w3.org/2000/svg" xmlns:xlink="http://www.w3.org/1999/xlink">
    <!-- Generator: sketchtool 57.1 (101010) - https://sketch.com -->
    <title>AC2022C7-D693-4EFA-A2B8-FC82B5B8E796</title>
    <desc>Created with sketchtool.</desc>
    <defs>
        <polygon id="path-1" points="0 100.276206 151.968796 100.276206 151.968796 0.0992034721 0 0.0992034721"></polygon>
    </defs>
    <g id="Page-1" stroke="none" stroke-width="1" fill="none" fill-rule="evenodd">
        <g id="FR" transform="translate(-577.000000, -2902.000000)">
            <g id="Group-33" transform="translate(568.000000, 2902.000000)">
                <path d="M13.4569451,0.100531058 L50.8842563,0.100531058 C52.7906701,0.100531058 54.3333253,1.64584144 54.3333253,3.5496001 L54.3333253,35.5046008 L10.0078761,35.5046008 L10.0078761,3.5496001 C10.0078761,1.64584144 11.5531865,0.100531058 13.4569451,0.100531058" id="Fill-1" fill="#B9C3FF"></path>
                <mask id="mask-2" fill="white">
                    <use xlink:href="#path-1"></use>
                </mask>
                <g id="Clip-4"></g>
                <polygon id="Fill-3" fill="#A0616A" mask="url(#mask-2)" points="28.8537592 29.3432731 35.2527249 29.3432731 35.2527249 20.5015487 28.8537592 20.5015487"></polygon>
                <path d="M23.0418522,18.1100349 C24.3428867,22.5282419 28.9469558,25.0665868 33.3704731,23.7788281 C37.7913353,22.4910695 40.327025,17.8737245 39.0392664,13.4502072 C37.7515077,9.02934504 33.3917145,6.59189672 28.7106454,7.78141398 C23.3631281,9.14086229 22.0886453,14.8733797 23.0418522,18.1100349" id="Fill-5" fill="#A0616A" mask="url(#mask-2)"></path>
                <path d="M52.0711184,35.5176111 C50.6240494,31.0887835 47.1139114,27.3343696 35.285118,26.4289558 C35.285118,26.4289558 34.069049,27.1299213 31.62098,27.1299213 C29.3375317,27.1299213 28.402911,26.3227489 28.402911,26.3227489 C23.1961177,26.2112316 20.3710142,25.8687144 15.0420831,29.57268 C13.4171175,30.7064386 11.3806002,32.8226111 11.0274623,35.5176111 L52.0711184,35.5176111 Z" id="Fill-6" fill="#FFCDDA" mask="url(#mask-2)"></path>
                <path d="M52.0334149,35.5279663 C52.0334149,35.5279663 45.1113803,30.2813455 45.4087596,25.6029316 C45.7247251,20.6218281 42.6341044,20.3695867 42.320794,15.3274141 C42.0844837,11.5544141 38.9513802,6.31310361 33.1923111,5.7448967 C28.341311,5.26696565 23.7505178,7.21851742 22.0538625,12.8050003 C20.5483798,17.7595521 22.1175867,24.2063109 20.1394832,26.917242 C20.1394832,26.917242 22.9486557,26.2879661 28.0386213,26.3118627 C28.2536903,26.3118627 29.3954144,26.8322765 29.3954144,26.8322765 L28.9334144,22.9716557 C28.9334144,22.9716557 24.9612764,20.5713798 24.5364488,17.0771728 C24.1116212,13.5829658 30.0459317,9.99317265 30.0459317,9.99317265 C30.0459317,9.99317265 40.0957595,13.5776555 36.0519318,20.3058625 C32.9002421,25.5524833 37.1644491,24.9710006 34.2464145,31.6938973 C33.5932421,33.1967249 33.7817594,34.4712077 34.3526214,35.5146904 L52.0334149,35.5279663 Z" id="Fill-7" fill="#343A5E" mask="url(#mask-2)"></path>
                <path d="M40.719194,35.5176111 C40.719194,33.4014387 39.0039526,31.6861973 36.8877801,31.6861973 L13.7904348,31.6861973 C11.6742623,31.6861973 9.95902091,33.4014387 9.95902091,35.5176111 C9.95902091,35.6822318 9.9882278,35.838887 10.006814,35.9981974 L10.006814,52.6222322 C10.006814,53.5754391 10.7794692,54.3454391 11.7300209,54.3454391 L52.6090563,54.3454391 C53.5622632,54.3454391 54.3322632,53.5727839 54.3322632,52.6222322 L54.3322632,35.5176111 L40.719194,35.5176111 Z" id="Fill-8" fill="#FFFFFF" mask="url(#mask-2)"></path>
                <polygon id="Fill-9" fill="#D8D8D8" mask="url(#mask-2)" points="14.1520693 47.1276183 50.1907252 47.1276183 50.1907252 44.1936527 14.1520693 44.1936527"></polygon>
                <path d="M35.3140594,38.2415526 L14.9276452,38.2415526 C14.5001624,38.2415526 14.15499,37.8963802 14.15499,37.4688974 L14.15499,36.0828974 C14.15499,35.6554146 14.5001624,35.3102422 14.9276452,35.3102422 L35.3140594,35.3102422 C35.7415422,35.3102422 36.0867146,35.6554146 36.0867146,36.0828974 L36.0867146,37.4688974 C36.0867146,37.8963802 35.738887,38.2415526 35.3140594,38.2415526" id="Fill-10" fill="#465192" mask="url(#mask-2)"></path>
                <path d="M62.2314013,0.100531058 L99.6587125,0.100531058 C101.565126,0.100531058 103.107782,1.64584144 103.107782,3.5496001 L103.107782,35.5046008 L58.7823323,35.5046008 L58.7823323,3.5496001 C58.7823323,1.64584144 60.3276427,0.100531058 62.2314013,0.100531058" id="Fill-11" fill="#B9C3FF" mask="url(#mask-2)"></path>
                <polygon id="Fill-12" fill="#FFCDDA" mask="url(#mask-2)" points="77.6266224 29.3432731 84.025588 29.3432731 84.025588 20.5015487 77.6266224 20.5015487"></polygon>
                <path d="M100.844247,35.5176111 C99.397178,31.0887835 95.88704,27.3343696 84.0582466,26.4289558 C84.0582466,26.4289558 82.8421777,27.1299213 80.3941086,27.1299213 C78.1080051,27.1299213 77.1760396,26.3227489 77.1760396,26.3227489 C71.9692464,26.2112316 69.1441429,25.8687144 63.8152117,29.57268 C62.1902462,30.7064386 60.1537289,32.8226111 59.800591,35.5176111 L100.844247,35.5176111 Z" id="Fill-13" fill="#343A5E" mask="url(#mask-2)"></path>
                <path d="M90.9261158,16.7590831 C90.9712537,16.4882556 90.0499088,15.1633245 90.0499088,15.1633245 C89.7711157,12.4391175 88.281564,9.54497954 84.8962191,8.36342779 C80.3903914,6.79156569 75.6987016,8.58115193 74.0684257,12.8320831 C72.9240464,15.8111866 74.3047361,17.7680487 74.3047361,17.7680487 C74.8968396,20.1523936 76.489943,22.7650833 78.9406672,23.7129798 C83.1836328,25.3591868 88.3187364,23.8722902 90.1614261,18.4822901 C90.405702,17.773359 90.7800813,17.6459107 90.9261158,16.7590831" id="Fill-14" fill="#FFCDDA" mask="url(#mask-2)"></path>
                <path d="M82.4486811,11.0948037 C81.0945431,11.8515279 78.6730258,15.0775624 77.5127155,16.9361831 C77.3321637,16.6706659 76.6046465,15.7466659 75.6089568,16.1104245 C74.642474,16.4635624 74.4990947,17.3132176 74.7460258,18.1734935 C74.9398533,18.8452522 75.9116465,20.5153556 77.674681,20.9720453 L76.9338879,22.8333212 C73.6600602,20.8605281 68.7161291,14.6314934 72.1758188,10.6195278 C74.4459913,1.27597591 87.3103019,7.07487259 89.7875778,5.49770014 C90.329233,8.88835539 88.5847847,11.623183 82.4486811,11.0948037" id="Fill-15" fill="#343A5E" mask="url(#mask-2)"></path>
                <path d="M89.4949778,35.5176111 C89.4949778,33.4014387 87.7797364,31.6861973 85.6635639,31.6861973 L62.5662186,31.6861973 C60.4500461,31.6861973 58.7348047,33.4014387 58.7348047,35.5176111 C58.7348047,35.6822318 58.7640116,35.838887 58.7825978,35.9981974 L58.7825978,52.6222322 C58.7825978,53.5754391 59.555253,54.3454391 60.5058048,54.3454391 L101.387495,54.3454391 C102.338047,54.3454391 103.108047,53.5727839 103.108047,52.6222322 L103.108047,35.5176111 L89.4949778,35.5176111 Z" id="Fill-16" fill="#FFFFFF" mask="url(#mask-2)"></path>
                <polygon id="Fill-17" fill="#D8D8D8" mask="url(#mask-2)" points="62.9275876 47.1276183 98.9662435 47.1276183 98.9662435 44.1936527 62.9275876 44.1936527"></polygon>
                <path d="M111.09162,0.100531058 L148.521586,0.100531058 C150.425345,0.100531058 151.970655,1.64584144 151.970655,3.5496001 L151.970655,35.5046008 L107.639895,35.5046008 L107.639895,3.5496001 C107.639895,1.64584144 109.185206,0.100531058 111.09162,0.100531058" id="Fill-18" fill="#B9C3FF" mask="url(#mask-2)"></path>
                <polygon id="Fill-19" fill="#FFDDE6" mask="url(#mask-2)" points="126.487106 29.3432731 132.886072 29.3432731 132.886072 20.5015487 126.487106 20.5015487"></polygon>
                <path d="M120.675199,18.1100349 C121.976234,22.5282419 126.580303,25.0665868 131.00382,23.7788281 C135.424682,22.4910695 137.960372,17.8737245 136.672613,13.4502072 C135.384855,9.02934504 131.022406,6.59189672 126.343992,7.78141398 C120.99913,9.14086229 119.721992,14.8733797 120.675199,18.1100349" id="Fill-20" fill="#FFDDE6" mask="url(#mask-2)"></path>
                <path d="M149.703138,35.5176111 C148.256069,31.0887835 144.748586,27.3343696 132.919793,26.4289558 C132.919793,26.4289558 131.703724,27.1299213 129.252999,27.1299213 C126.969551,27.1299213 126.03493,26.3227489 126.03493,26.3227489 C120.828137,26.2112316 118.005689,25.8687144 112.676758,29.57268 C111.049137,30.7064386 109.015275,32.8226111 108.659482,35.5176111 L149.703138,35.5176111 Z" id="Fill-21" fill="#6372FC" mask="url(#mask-2)"></path>
                <path d="M143.075562,25.5917799 C143.391527,20.6106763 140.300906,20.3584349 139.990251,15.3162624 C139.751286,11.5432623 136.618182,6.30195188 130.859113,5.73374497 C126.008113,5.25581393 121.419975,7.2073657 119.720665,12.7938486 C118.217837,17.7484004 119.787044,24.1951592 117.806285,26.9060903 L126.034665,26.3219523 L127.067527,26.8211247 L126.605527,22.960504 C126.605527,22.960504 122.633389,20.5602281 122.208561,17.0660211 C121.781079,13.5718141 127.718044,9.98202093 127.718044,9.98202093 C127.718044,9.98202093 137.765217,13.5665038 133.724044,20.2947108 C131.082148,24.6863661 133.092113,25.4722971 132.566389,29.1550213 C132.42832,30.1268145 133.471803,30.8357455 134.329424,30.36578 L143.075562,25.5917799 Z" id="Fill-22" fill="#FAD18F" mask="url(#mask-2)"></path>
                <path d="M138.353869,35.5176111 C138.353869,33.4014387 136.638627,31.6861973 134.522455,31.6861973 L111.422454,31.6861973 C109.308937,31.6861973 107.593695,33.4014387 107.593695,35.5176111 C107.593695,35.6822318 107.622902,35.838887 107.641489,35.9981974 L107.641489,52.6222322 C107.641489,53.5754391 108.414144,54.3454391 109.364695,54.3454391 L150.243731,54.3454391 C151.196938,54.3454391 151.966938,53.5727839 151.966938,52.6222322 L151.966938,35.5176111 L138.353869,35.5176111 Z" id="Fill-23" fill="#FFFFFF" mask="url(#mask-2)"></path>
                <polygon id="Fill-24" fill="#D8D8D8" mask="url(#mask-2)" points="111.785416 47.1276183 147.821417 47.1276183 147.821417 44.1936527 111.785416 44.1936527"></polygon>
                <path d="M15.1424486,2.79738974 C16.4355176,2.79738974 17.4843107,3.84618286 17.4843107,5.13925186 C17.4843107,6.43232085 16.4355176,7.48111398 15.1424486,7.48111398 C13.8493796,7.48111398 12.8005865,6.43232085 12.8005865,5.13925186 C12.8005865,3.84618286 13.8493796,2.79738974 15.1424486,2.79738974" id="Fill-25" fill="#1FDEA6" mask="url(#mask-2)"></path>
                <path d="M64.0167393,2.79738974 C65.3098083,2.79738974 66.3586014,3.84618286 66.3586014,5.13925186 C66.3586014,6.43232085 65.3098083,7.48111398 64.0167393,7.48111398 C62.7236703,7.48111398 61.6748772,6.43232085 61.6748772,5.13925186 C61.6748772,3.84618286 62.7236703,2.79738974 64.0167393,2.79738974" id="Fill-26" fill="#1FDEA6" mask="url(#mask-2)"></path>
                <path d="M113.155485,2.79738974 C114.448554,2.79738974 115.497347,3.84618286 115.497347,5.13925186 C115.497347,6.43232085 114.448554,7.48111398 113.155485,7.48111398 C111.862416,7.48111398 110.813623,6.43232085 110.813623,5.13925186 C110.813623,3.84618286 111.862416,2.79738974 113.155485,2.79738974" id="Fill-27" fill="#1FDEA6" mask="url(#mask-2)"></path>
                <path d="M84.086126,38.2415526 L63.6997117,38.2415526 C63.272229,38.2415526 62.9270565,37.8963802 62.9270565,37.4688974 L62.9270565,36.0828974 C62.9270565,35.6554146 63.272229,35.3102422 63.6997117,35.3102422 L84.086126,35.3102422 C84.5136087,35.3102422 84.8587963,35.6554146 84.8587963,36.0828974 L84.8587963,37.4688974 C84.8614363,37.8963802 84.5136087,38.2415526 84.086126,38.2415526" id="Fill-28" fill="#465192" mask="url(#mask-2)"></path>
                <path d="M132.947406,38.2415526 L112.560992,38.2415526 C112.133509,38.2415526 111.788337,37.8963802 111.788337,37.4688974 L111.788337,36.0828974 C111.788337,35.6554146 112.133509,35.3102422 112.560992,35.3102422 L132.947406,35.3102422 C133.374889,35.3102422 133.720062,35.6554146 133.720062,36.0828974 L133.720062,37.4688974 C133.720062,37.8963802 133.374889,38.2415526 132.947406,38.2415526" id="Fill-29" fill="#465192" mask="url(#mask-2)"></path>
                <path d="M60.5889117,83.3354087 C49.5301183,82.2574087 41.4265319,72.3987533 42.504532,61.33996 C43.582532,50.2811666 53.4411874,42.1775802 64.4999807,43.2555803 C75.5587741,44.3335803 83.6597053,54.1895805 82.5843604,65.2483738 C81.5063604,76.3469948 71.647705,84.4532363 60.5889117,83.3354087" id="Fill-30" fill="#FFFFFF" mask="url(#mask-2)"></path>
                <path d="M60.7585772,81.5981294 C50.6583011,80.6130604 43.2583354,71.6093705 44.2434044,61.5090945 C45.2284734,51.4088184 54.2321632,44.0088527 64.3324393,44.9939217 C74.4327154,45.9789907 81.8326811,54.9826805 80.8476121,65.0829566 C79.8625431,75.2177499 70.8588533,82.6203708 60.7585772,81.5981294 M64.696198,41.181094 C52.4505425,39.9942319 41.5802664,48.8996804 40.3934043,61.1426807 C39.2065422,73.3856809 48.1119907,84.2586122 60.354991,85.4454743 C72.6006464,86.6323364 83.4709225,77.6897155 84.6551294,65.4838876 C85.8473019,53.2408874 76.904681,42.3679561 64.696198,41.181094" id="Fill-31" fill="#465192" mask="url(#mask-2)"></path>
                <path d="M22.6488867,92.7400296 L44.9523355,74.6131672 C46.7498872,73.1342361 47.9155079,74.7512361 49.3917838,76.5461327 C50.8680597,78.3861672 52.1372322,79.721719 50.3423356,81.1979949 L28.0388868,99.3248573 C26.2413351,100.803788 23.5277488,100.524995 22.0514729,98.7274435 C20.5327142,96.887409 20.8115073,94.2163055 22.6488867,92.7400296" id="Fill-32" fill="#465192" mask="url(#mask-2)"></path>
            </g>
        </g>
    </g>
</svg>