<?xml version="1.0" encoding="UTF-8"?>
<svg width="50px" height="38px" viewBox="0 0 50 38" version="1.1" xmlns="http://www.w3.org/2000/svg" xmlns:xlink="http://www.w3.org/1999/xlink">
    <!-- Generator: Sketch 52.6 (67491) - http://www.bohemiancoding.com/sketch -->
    <title>icn_profile</title>
    <desc>Created with Sketch.</desc>
    <g id="LP-Become-a-freelancer" stroke="none" stroke-width="1" fill="none" fill-rule="evenodd">
        <g id="LP_become_freelancer_desktop" transform="translate(-289.000000, -2757.000000)">
            <g id="video" transform="translate(210.000000, 1793.000000)">
                <g id="text1" transform="translate(79.000000, 963.000000)">
                    <g id="icn_profile">
                        <path d="M32.9355196,31 C34.4082222,33.963437 37.4662787,36 41,36 C42.7541013,36 44.3909978,35.4981862 45.7749616,34.6302862 L50,38.8526115 L15.9203237,39 L15.845944,39 C11.6393588,39 7.68070586,37.3564787 4.69174387,34.3642131 C1.68625306,31.355262 0.0195968297,27.3451812 0.000313203915,23.0681324 C-0.0189704218,18.7938646 0.796451468,7 18.1269214,7 L29.1733728,18.0393579 C26.8726595,18.1884362 24.5940758,18.7318833 22.4301749,19.6679958 C21.6047069,20.0803007 21.0462435,20.9724399 21,21.9417359 L21,28.2281509 C21,29.7750199 22.1366919,31 23.5,31 L32.9355196,31 Z" id="background" fill="#FFCDDA" fill-rule="evenodd" opacity="0.5"></path>
                        <path d="M32.9355196,31 C33.2973571,31.7281052 33.7548969,32.4002581 34.2916805,33 L23.5,33 C20.9973148,33 19,30.8475514 19,28.2281509 L19.0010835,21.8951971 C19.0815115,20.168876 20.0504404,18.6210228 21.5860455,17.8556886 C27.3013115,15.3814371 33.6870218,15.3814371 39.4482416,17.8769805 C39.5725587,17.9384512 39.6932884,18.0055526 39.8102143,18.0779478 C38.7499199,18.2179825 37.7478362,18.5425962 36.8373026,19.0184496 C32.1063885,17.4642872 27.0112809,17.6861904 22.4301749,19.6679958 C21.6047069,20.0803007 21.0462435,20.9724399 21,21.9417359 L21,28.2281509 C21,29.7750199 22.1366919,31 23.5,31 L32.9355196,31 Z M38,8 C38,11.8659932 34.8659932,15 31,15 C27.1340068,15 24,11.8659932 24,8 C24,4.13400675 27.1340068,1 31,1 C34.8659932,1 38,4.13400675 38,8 Z M26,8 C26,10.7614237 28.2385763,13 31,13 C33.7614237,13 36,10.7614237 36,8 C36,5.23857625 33.7614237,3 31,3 C28.2385763,3 26,5.23857625 26,8 Z" id="profile" fill="#343A5E" fill-rule="nonzero"></path>
                        <path d="M41,34 C37.1340068,34 34,30.8659932 34,27 C34,23.1340068 37.1340068,20 41,20 C44.8659932,20 48,23.1340068 48,27 C48,30.8659932 44.8659932,34 41,34 Z M42,26.5 L42,23.5 C42,22.9477153 41.5522847,22.5 41,22.5 C40.4477153,22.5 40,22.9477153 40,23.5 L40,27.5 C40,28.0522847 40.4477153,28.5 41,28.5 L44,28.5 C44.5522847,28.5 45,28.0522847 45,27.5 C45,26.9477153 44.5522847,26.5 44,26.5 L42,26.5 Z" id="clock" fill="#5563B5" fill-rule="nonzero"></path>
                    </g>
                </g>
            </g>
        </g>
    </g>
</svg>