<?xml version="1.0" encoding="UTF-8"?>
<svg width="50px" height="35px" viewBox="0 0 50 35" version="1.1" xmlns="http://www.w3.org/2000/svg" xmlns:xlink="http://www.w3.org/1999/xlink">
    <!-- Generator: Sketch 52.6 (67491) - http://www.bohemiancoding.com/sketch -->
    <title>icn_shield</title>
    <desc>Created with Sketch.</desc>
    <g id="LP-Become-a-freelancer" stroke="none" stroke-width="1" fill="none" fill-rule="evenodd">
        <g id="LP_become_freelancer_desktop" transform="translate(-762.000000, -2941.000000)">
            <g id="video" transform="translate(210.000000, 1793.000000)">
                <g id="text4" transform="translate(552.000000, 1144.000000)">
                    <g id="Fill-9">
                        <path d="M21.3012558,10.172296 L18,11.4992468 L18,20.4027471 C19.0275162,25.5488718 22.7231673,30.0294562 29.1654717,33.8462443 C32.9851225,31.6429064 35.7915217,29.1836163 37.6045978,26.4651689 L50,38.8526115 L15.9203237,39 L15.845944,39 C11.6393588,39 7.68070586,37.3564787 4.69174387,34.3642131 C1.68625306,31.355262 0.0195968297,27.3451812 0.000313203915,23.0681324 C-0.0189704218,18.7938646 0.796451468,7 18.1269214,7 L21.3012558,10.172296 Z" id="Combined-Shape" fill="#FFCDDA" fill-rule="evenodd" opacity="0.5"></path>
                        <path d="M29,7.07775994 L18,11.4992468 L18,20.4027471 C19.0275162,25.5488718 22.7231673,30.0294562 29.1654717,33.8462443 C35.7908543,30.0244402 39.3676971,25.4325603 40,20.0538785 L40,11.4992468 L29,7.07775994 Z M42,10.1476336 L42,20.1114817 L41.9935994,20.2244431 C41.2834018,26.4712873 37.1299061,31.6935547 29.6461055,35.8730729 L29.1513564,36.149378 L28.6600878,35.8669311 C21.4100244,31.6986249 17.1673504,26.6388978 16.0181505,20.6896616 L16,20.5 L16,10.1476336 L29,4.92224006 L42,10.1476336 Z" id="Path-4" fill="#343A5D" fill-rule="nonzero"></path>
                        <path d="M21,13.5402261 L29,10 L29,20 L21,20 L21,13.5402261 Z M37,20 C34.4628874,26.6666667 31.7962207,30 29,30 L29,20 L37,20 Z" id="Combined-Shape" fill="#5563B5" fill-rule="nonzero"></path>
                    </g>
                </g>
            </g>
        </g>
    </g>
</svg>