<?xml version="1.0" encoding="UTF-8"?>
<svg width="50px" height="39px" viewBox="0 0 50 39" version="1.1" xmlns="http://www.w3.org/2000/svg" xmlns:xlink="http://www.w3.org/1999/xlink">
    <!-- Generator: Sketch 52.6 (67491) - http://www.bohemiancoding.com/sketch -->
    <title>icn_toggles</title>
    <desc>Created with Sketch.</desc>
    <g id="LP-Become-a-freelancer" stroke="none" stroke-width="1" fill="none" fill-rule="evenodd">
        <g id="LP_become_freelancer_desktop" transform="translate(-530.000000, -940.000000)">
            <g id="value_prop" transform="translate(130.000000, 748.000000)">
                <g id="text2" transform="translate(400.000000, 192.000000)">
                    <g id="Fill-9">
                        <path d="M30.6253987,22 L24,22 C21.2385763,22 19,24.2385763 19,27 C19,29.7614237 21.2385763,32 24,32 L30.6253987,32 C32.1709303,34.1213345 34.6744629,35.5 37.5,35.5 C40.0109113,35.5 42.2675365,34.4112714 43.8235561,32.6801337 L50,38.8526115 L15.9203237,39 L15.845944,39 C11.6393588,39 7.68070586,37.3564787 4.69174387,34.3642131 C1.68625306,31.355262 0.0195968297,27.3451812 0.000313203915,23.0681324 C-0.0173830875,19.1457016 0.667864115,8.89067611 14.1742026,7.22896591 C14.059935,7.80157709 14,8.39378926 14,9 C14,13.9705627 18.0294373,18 23,18 C24.7510987,18 26.3853934,17.4999027 27.7678522,16.6347399 L31.8158068,20.6800951 C31.3747728,21.0770245 30.9755058,21.5194572 30.6253987,22 Z" id="Combined-Shape" fill="#FFCDDA" fill-rule="evenodd" opacity="0.5"></path>
                        <path d="M30.4844593,4.00001244 C31.4417316,5.43010801 32,7.14985872 32,9 C32,10.8501413 31.4417316,12.569892 30.4844593,13.9999876 L37,14 C39.7614237,14 42,11.7614237 42,9 C42,6.23857625 39.7614237,4 37,4 L30.484451,4 Z M28.6573343,2 L37,2 C40.8659932,2 44,5.13400675 44,9 C44,12.8659932 40.8659932,16 37,16 L28.6573343,16 C27.1115933,17.2508056 25.1432885,18 23,18 C18.0294373,18 14,13.9705627 14,9 C14,4.02943725 18.0294373,4.4408921e-16 23,4.4408921e-16 C25.1432885,4.4408921e-16 27.1115933,0.749194442 28.6573168,1.99998577 Z M23,16 C26.8659932,16 30,12.8659932 30,9 C30,5.13400675 26.8659932,2 23,2 C19.1340068,2 16,5.13400675 16,9 C16,12.8659932 19.1340068,16 23,16 Z M21.7790518,9.00000003 L20.2528666,7.47381484 C19.9157111,7.13665932 19.9157111,6.59002222 20.2528666,6.25286671 C20.5900221,5.91571119 21.1366592,5.91571119 21.4738148,6.25286671 L22.9999999,7.7790519 L24.5261852,6.25286665 C24.8633407,5.91571112 25.4099778,5.91571112 25.7471334,6.25286665 C26.0842889,6.59002218 26.0842889,7.13665929 25.7471334,7.47381481 L24.2209481,9.00000007 L25.7471332,10.5261851 C26.0842887,10.8633406 26.0842887,11.4099777 25.7471332,11.7471332 C25.4099776,12.0842888 24.8633405,12.0842888 24.526185,11.7471332 L23,10.2209482 L21.4738148,11.7471334 C21.1366593,12.0842889 20.5900222,12.0842889 20.2528667,11.7471334 C19.9157111,11.4099778 19.9157111,10.8633407 20.2528667,10.5261852 L21.7790518,9.00000003 Z" id="Combined-Shape" fill="#3B4269" fill-rule="nonzero"></path>
                        <path d="M30.6253987,32 C31.1912052,32.7766033 31.8854061,33.4536716 32.6767963,34 L24,34 C20.1340068,34 17,30.8659932 17,27 C17,23.1340068 20.1340068,20 24,20 L32.6767963,20 C31.8854061,20.5463284 31.1912052,21.2233967 30.6253987,22 L24,22 C21.2385763,22 19,24.2385763 19,27 C19,29.7614237 21.2385763,32 24,32 L30.6253987,32 Z" id="Combined-Shape" fill="#3B4269" fill-rule="nonzero"></path>
                        <path d="M37.5,35.5 C32.8055796,35.5 29,31.6944204 29,27 C29,22.3055796 32.8055796,18.5 37.5,18.5 C42.1944204,18.5 46,22.3055796 46,27 C46,31.6944204 42.1944204,35.5 37.5,35.5 Z M36.5761455,27.8338746 L34.7909789,26.079171 C34.3884269,25.6834883 33.7509292,25.6590073 33.3192176,26.0226529 C33.292009,26.0455716 33.2662118,26.0701154 33.2419674,26.0961497 C32.909968,26.4526597 32.9298378,27.0108068 33.2863478,27.3428062 L35.7075303,29.597529 C35.7428837,29.6505584 35.7849193,29.7003464 35.8335939,29.7456746 C36.2027498,30.0894504 36.7748291,30.0894504 37.143985,29.7456746 L41.7303538,25.4746252 C41.7448299,25.4611444 41.7588216,25.4471526 41.7723025,25.4326766 C42.0861113,25.0957001 42.0673303,24.5681343 41.7303538,24.2543254 C41.3611979,23.9105496 40.7891186,23.9105496 40.4199627,24.2543254 L36.5761455,27.8338746 Z" id="Combined-Shape" fill="#5563B5" fill-rule="evenodd"></path>
                    </g>
                </g>
            </g>
        </g>
    </g>
</svg>